<svg width="19" height="19" fill="none" xmlns="http://www.w3.org/2000/svg"><path d="M16.685 4.743c1.259 0 2.28-1.04 2.28-2.322 0-1.283-1.021-2.323-2.28-2.323-1.26 0-2.28 1.04-2.28 2.323 0 1.282 1.02 2.322 2.28 2.322ZM8.56 2.42c-.448 0-.887.04-1.316.11A3.468 3.468 0 0 0 3.94.098C2.03.098.477 1.658.477 3.582A3.48 3.48 0 0 0 1.706 6.24a8.115 8.115 0 0 0-1.229 4.308c0 4.489 3.62 8.127 8.083 8.127 4.464 0 8.083-3.639 8.083-8.127 0-4.489-3.619-8.127-8.083-8.127Zm3.153 10.45a2.302 2.302 0 0 0-1.998-1.161c-.855 0-1.598.467-1.998 1.161a2.326 2.326 0 0 1-.312-1.161 2.317 2.317 0 0 1 2.31-2.322c1.275 0 2.31 1.04 2.31 2.322 0 .423-.116.82-.312 1.161Z" fill="#999"/></svg>