<svg width="300" height="60" fill="none" xmlns="http://www.w3.org/2000/svg"><g clip-path="url(#a)" fill="#fff" fill-opacity=".5"><path d="m18.09 25.212 11.65-11.651L41.4 25.219l6.78-6.78L29.741 0 11.31 18.433l6.78 6.78Zm-4.789 4.787-6.78-6.78-6.78 6.78 6.78 6.78L13.3 30Zm4.789 4.788L29.74 46.44 41.4 34.782l6.784 6.776-.004.004L29.741 60 11.31 41.568l-.01-.01 6.79-6.77Zm34.872 1.995 6.78-6.78-6.78-6.78-6.78 6.78 6.78 6.78Z"/><path d="M36.618 29.996h.003l-6.88-6.88-5.084 5.085-.585.584-1.205 1.205-.01.01.01.01 6.874 6.873 6.88-6.88.003-.003-.006-.004Zm33.693-15.457h14.746c3.66 0 6.428.939 8.303 2.817 1.452 1.455 2.178 3.258 2.178 5.41v.09c0 .91-.113 1.712-.339 2.41a7.486 7.486 0 0 1-.903 1.885 7.185 7.185 0 0 1-1.31 1.477 8.775 8.775 0 0 1-1.603 1.091c1.84.698 3.288 1.644 4.344 2.841 1.055 1.198 1.583 2.857 1.583 4.977v.091c0 1.455-.28 2.727-.839 3.819a7.42 7.42 0 0 1-2.405 2.727c-1.044.727-2.3 1.272-3.767 1.636-1.467.364-3.093.545-4.877.545h-15.11V14.54ZM83.583 27.4c1.546 0 2.773-.264 3.682-.795.909-.53 1.363-1.386 1.363-2.568v-.09c0-1.06-.394-1.871-1.182-2.432-.788-.56-1.924-.841-3.408-.841h-6.91V27.4h6.455Zm1.864 12.819c1.545 0 2.757-.28 3.636-.84.879-.562 1.319-1.433 1.319-2.615v-.09c0-1.061-.41-1.902-1.228-2.523-.818-.62-2.136-.932-3.955-.932h-8.09v7h8.318Zm20.646-25.68h7v31.817h-7V14.54Zm17.602 0h6.454l14.909 19.59V14.54h6.909v31.817h-5.954L130.604 26.13v20.227h-6.909V14.54Zm49.464-.227h6.454l13.637 32.044h-7.318l-2.91-7.136h-13.454l-2.909 7.136h-7.137l13.637-32.044Zm7.364 18.726-4.228-10.318-4.226 10.318h8.454Zm20.283-18.499h6.455l14.908 19.59V14.54h6.909v31.817h-5.954L207.715 26.13v20.227h-6.909V14.54Zm53.464 32.362c-2.334 0-4.5-.424-6.5-1.272-2-.848-3.727-2.008-5.182-3.478-1.454-1.47-2.591-3.204-3.408-5.204-.819-2-1.228-4.137-1.228-6.41v-.09c0-2.273.409-4.4 1.228-6.386a16.404 16.404 0 0 1 3.408-5.227c1.454-1.5 3.197-2.682 5.227-3.546 2.03-.863 4.274-1.295 6.728-1.295 1.484 0 2.839.122 4.067.364 1.227.243 2.34.575 3.341 1 1.001.424 1.924.94 2.773 1.545a18.855 18.855 0 0 1 2.363 2l-4.453 5.136c-1.244-1.12-2.509-2-3.796-2.636-1.289-.636-2.735-.954-4.341-.954-1.334 0-2.569.257-3.704.773a8.775 8.775 0 0 0-2.933 2.135 10.006 10.006 0 0 0-1.909 3.16 10.764 10.764 0 0 0-.68 3.84v.09c0 1.364.227 2.653.68 3.864.456 1.213 1.083 2.273 1.887 3.182a8.797 8.797 0 0 0 2.908 2.16c1.138.53 2.387.794 3.751.794 1.819 0 3.355-.333 4.613-1 1.257-.665 2.508-1.575 3.75-2.727l4.455 4.5a23.108 23.108 0 0 1-2.546 2.364 15.12 15.12 0 0 1-2.887 1.796c-1.044.5-2.189.879-3.431 1.136-1.243.257-2.636.386-4.181.386Zm21.283-32.362h23.954v6.227h-17.045v6.454h15v6.227h-15v6.682h17.273v6.227h-24.182V14.54Z"/></g><defs><clipPath id="a"><path fill="#fff" d="M0 0h299.507v60H0z"/></clipPath></defs></svg>