<svg width="192" height="60" fill="none" xmlns="http://www.w3.org/2000/svg"><path fill-rule="evenodd" clip-rule="evenodd" d="M63.922 28.982c-.234-2.688-2.3-5.142-5.143-5.142-2.845 0-4.87 2.454-5.143 5.142h10.286Zm1.167.534a.562.562 0 0 1-.564.557H53.636c.273 2.69 2.298 5.143 5.142 5.143 1.948 0 3.39-.74 4.481-2.299.159-.212.39-.351.694-.223a.535.535 0 0 1 .24.768c-1.09 1.91-3.271 2.844-5.414 2.844-3.662 0-6.273-3.271-6.273-6.778 0-3.506 2.611-6.778 6.273-6.778 3.658 0 6.304 3.264 6.312 6.766h-.002Zm13.207-6.494c.313 0 .546.274.546.546a.532.532 0 0 1-.546.545h-2.922v11.454a.557.557 0 0 1-.544.545.557.557 0 0 1-.546-.545V24.113h-2.805a.533.533 0 0 1-.546-.545c0-.272.234-.546.546-.546h2.805v-4.193c0-.264.18-.509.44-.55.362-.06.65.19.65.536v4.207h2.922ZM96.1 28.554v6.936a.556.556 0 0 1-.757.505.532.532 0 0 1-.334-.506v-6.935c0-2.338-1.325-4.675-3.935-4.675-3.35 0-4.791 2.922-4.596 5.922 0 .078.038.428.038.468v5.205c0 .264-.18.51-.439.552-.363.06-.651-.192-.651-.537v-22.79c0-.273.234-.545.544-.545.313 0 .546.272.546.544v12.896c.936-1.676 2.61-2.806 4.558-2.806 3.195 0 5.026 2.806 5.026 5.766Zm18.349.428c-.234-2.688-2.299-5.142-5.143-5.142s-4.87 2.454-5.142 5.142h10.285Zm1.167.534a.559.559 0 0 1-.564.557h-10.888c.272 2.69 2.298 5.143 5.142 5.143 1.948 0 3.39-.74 4.48-2.299.159-.212.39-.351.694-.223a.525.525 0 0 1 .293.33.535.535 0 0 1-.053.438c-1.09 1.91-3.271 2.844-5.414 2.844-3.662 0-6.272-3.271-6.272-6.778 0-3.506 2.61-6.778 6.272-6.778 3.658 0 6.304 3.264 6.312 6.766h-.002Zm13.364-5.988c0 .352-.195.546-.507.585-3.194.468-4.635 3.078-4.635 6.116v5.207c0 .264-.18.508-.441.55-.362.06-.651-.191-.651-.537V23.581c0-.264.18-.507.44-.55.364-.06.652.191.652.537v2.416c.895-1.52 2.688-2.96 4.557-2.96.273 0 .585.194.585.504Zm16.712 5.454c-.234-2.688-2.298-5.142-5.142-5.142-2.844 0-4.87 2.454-5.142 5.142h10.284Zm1.169.534a.564.564 0 0 1-.564.557h-10.889c.272 2.69 2.298 5.143 5.142 5.143 1.948 0 3.389-.74 4.48-2.299.159-.212.391-.351.694-.223a.518.518 0 0 1 .309.392.53.53 0 0 1-.069.377c-1.09 1.908-3.272 2.844-5.414 2.844-3.662 0-6.271-3.272-6.271-6.78 0-3.505 2.609-6.777 6.271-6.777 3.658 0 6.305 3.264 6.312 6.766h-.001Zm17.569-5.85v11.9a.556.556 0 0 1-.756.508.539.539 0 0 1-.335-.507v-2.26c-.895 1.792-2.492 3.078-4.519 3.078-3.233 0-5.024-2.805-5.024-5.766v-6.972c0-.273.232-.547.544-.547.312 0 .546.274.546.546v6.973c0 2.338 1.324 4.675 3.934 4.675 3.662 0 4.519-3.428 4.519-7.208v-4.44a.545.545 0 0 1 .223-.435.547.547 0 0 1 .48-.088.559.559 0 0 1 .388.543Zm27.542 4.85v6.972a.556.556 0 0 1-.755.508.533.533 0 0 1-.335-.507v-6.973c0-2.338-1.324-4.636-3.935-4.636-3.271 0-4.518 3.505-4.518 6.233v5.376a.557.557 0 0 1-.757.507.527.527 0 0 1-.296-.297.524.524 0 0 1-.038-.21v-6.973c0-2.338-1.325-4.636-3.935-4.636-3.312 0-4.675 2.61-4.559 6.077 0 .078.04.234 0 .272v5.247c0 .264-.178.506-.439.55-.363.06-.651-.193-.651-.537V23.582c0-.264.18-.508.44-.552.362-.058.65.192.65.538v1.986c.936-1.674 2.612-2.765 4.56-2.765 2.219 0 3.934 1.402 4.635 3.467.895-2.026 2.648-3.468 4.908-3.468 3.194 0 5.025 2.766 5.025 5.728M.392 30.678l18.192 10.754V.492L.392 30.678ZM18.586.492v40.94l18.192-10.754L18.586.492Z" fill="#fff" fill-opacity=".5"/><path fill-rule="evenodd" clip-rule="evenodd" d="M18.586 22.41.392 30.678l18.192 10.754L36.778 30.68l-18.192-8.27Z" fill="#fff" fill-opacity=".5"/><path fill-rule="evenodd" clip-rule="evenodd" d="M18.586 22.41.392 30.678l18.192 10.754.002-19.022ZM.392 34.128l18.192 25.637V44.876L.392 34.128Zm18.194 10.748v14.89L36.79 34.128 18.586 44.876Z" fill="#fff" fill-opacity=".5"/></svg>