<svg width="72" height="20" fill="none" xmlns="http://www.w3.org/2000/svg"><path d="M29.81 14.257h-2.1l.014-1.085h2.088c.719 0 1.318-.15 1.797-.45.48-.304.84-.728 1.08-1.272.243-.548.365-1.189.365-1.922v-.615c0-.576-.069-1.088-.207-1.535a3.107 3.107 0 0 0-.608-1.141 2.57 2.57 0 0 0-.982-.712 3.382 3.382 0 0 0-1.32-.242h-2.268V4.19h2.267c.66 0 1.261.111 1.805.332a3.879 3.879 0 0 1 1.403.948c.397.41.701.908.913 1.493.212.58.318 1.235.318 1.964v.601c0 .728-.106 1.385-.318 1.97a4.014 4.014 0 0 1-2.358 2.434c-.557.217-1.187.325-1.887.325ZM28.422 4.19v10.067h-1.334V4.19h1.334Zm9.044 3.762v6.305h-1.28v-7.48h1.245l.035 1.175Zm2.337-1.217-.007 1.189a1.847 1.847 0 0 0-.305-.041 3.233 3.233 0 0 0-.318-.014c-.294 0-.555.046-.78.138a1.618 1.618 0 0 0-.575.387 1.861 1.861 0 0 0-.373.595 2.858 2.858 0 0 0-.173.747l-.36.207c0-.452.044-.876.132-1.272a3.45 3.45 0 0 1 .422-1.051c.189-.309.428-.549.719-.72.295-.174.645-.262 1.05-.262.093 0 .199.012.319.035a.93.93 0 0 1 .249.062Zm.705 3.865v-.16c0-.539.078-1.039.235-1.5.157-.465.383-.868.678-1.21a3.023 3.023 0 0 1 1.071-.802c.42-.193.89-.29 1.41-.29.526 0 .999.097 1.418.29.424.19.784.457 1.079.802.3.342.527.745.684 1.21.157.461.235.961.235 1.5v.16c0 .54-.078 1.04-.235 1.5a3.59 3.59 0 0 1-.684 1.21 3.136 3.136 0 0 1-1.072.802 3.366 3.366 0 0 1-1.41.284c-.526 0-.998-.095-1.418-.284a3.208 3.208 0 0 1-1.078-.802 3.656 3.656 0 0 1-.678-1.21 4.633 4.633 0 0 1-.235-1.5Zm1.279-.16v.16c0 .373.044.726.131 1.058.088.327.22.617.394.87.18.254.404.455.671.602.267.143.579.215.934.215.35 0 .656-.072.919-.215a1.93 1.93 0 0 0 .664-.601c.175-.254.306-.544.394-.871.092-.332.138-.685.138-1.058v-.16c0-.368-.046-.716-.138-1.043a2.69 2.69 0 0 0-.401-.878 1.906 1.906 0 0 0-.664-.609 1.862 1.862 0 0 0-.926-.221c-.35 0-.66.074-.927.221a1.99 1.99 0 0 0-.664.609 2.778 2.778 0 0 0-.394.878 4.028 4.028 0 0 0-.131 1.044ZM50.2 8.215v8.92h-1.286V6.776h1.176l.11 1.438Zm5.04 2.24v.146c0 .544-.064 1.048-.193 1.514-.129.46-.318.862-.567 1.203a2.58 2.58 0 0 1-.906.795 2.62 2.62 0 0 1-1.237.284c-.475 0-.895-.079-1.259-.236a2.482 2.482 0 0 1-.926-.684c-.254-.3-.456-.66-.608-1.079a6.241 6.241 0 0 1-.305-1.417v-.774a6.505 6.505 0 0 1 .311-1.487c.153-.438.353-.811.602-1.12.253-.313.56-.55.92-.712a2.94 2.94 0 0 1 1.244-.249c.47 0 .887.092 1.252.277.364.18.67.437.919.774.249.336.436.74.56 1.21.13.465.194.984.194 1.556Zm-1.285.146v-.145c0-.374-.04-.724-.118-1.051a2.657 2.657 0 0 0-.366-.872 1.746 1.746 0 0 0-.623-.594 1.77 1.77 0 0 0-.905-.221c-.323 0-.604.055-.844.166-.235.11-.435.26-.601.449a2.386 2.386 0 0 0-.408.636c-.102.235-.178.48-.229.733v1.79c.093.323.222.628.388.913.166.281.387.51.663.685.277.17.625.256 1.044.256.346 0 .643-.072.892-.215.254-.147.461-.348.623-.601.166-.254.288-.544.366-.871a4.59 4.59 0 0 0 .118-1.058Zm4.307-6.963v10.62h-1.286V3.637h1.286Zm5.158 10.759c-.52 0-.993-.088-1.417-.263a3.207 3.207 0 0 1-1.086-.754c-.3-.322-.53-.705-.691-1.147a4.208 4.208 0 0 1-.242-1.452v-.29c0-.61.09-1.15.27-1.626a3.64 3.64 0 0 1 .732-1.217c.309-.331.66-.583 1.051-.753a3.03 3.03 0 0 1 1.217-.256c.535 0 .996.092 1.383.277.392.184.712.442.96.774.25.327.434.714.554 1.162.12.442.18.926.18 1.451v.574h-5.587V9.832h4.308v-.096a3.19 3.19 0 0 0-.208-.968 1.74 1.74 0 0 0-.553-.775c-.253-.203-.6-.304-1.037-.304a1.741 1.741 0 0 0-1.431.726c-.175.24-.311.532-.408.878a4.45 4.45 0 0 0-.145 1.196v.29c0 .355.048.69.145 1.003.101.309.246.58.435.816.194.235.427.42.699.553.276.134.59.2.94.2.452 0 .834-.092 1.148-.276a2.84 2.84 0 0 0 .823-.74l.774.615a3.584 3.584 0 0 1-.615.699 2.937 2.937 0 0 1-.92.54c-.36.137-.786.207-1.28.207Zm7.536-7.62v.982h-4.044v-.982h4.044Zm-2.675-1.818h1.279v7.446c0 .254.039.445.117.574.078.13.18.215.304.256.125.041.259.062.401.062.106 0 .217-.009.332-.027.12-.024.21-.042.27-.056l.007 1.044a2.992 2.992 0 0 1-.401.09 3.054 3.054 0 0 1-.588.049 2 2 0 0 1-.864-.187 1.39 1.39 0 0 1-.63-.622c-.151-.295-.227-.692-.227-1.19v-7.44ZM1.923 6.448c5.248-9.15 14.598-6.325 11.66 3.159-2.936 9.483 5.69.424 5.274 5.918-.416 5.495-16.74 5.072-11.494-.427 5.243-5.498 5.846-7.386.453-3.848-5.394 3.54-9.912 2.204-5.893-4.802Z" fill="#999"/><path d="M1.923 6.448c5.248-9.15 14.598-6.325 11.66 3.159-2.936 9.483 5.69.424 5.274 5.918-.416 5.495-16.74 5.072-11.494-.427 5.243-5.498 5.846-7.386.453-3.848-5.394 3.54-9.912 2.204-5.893-4.802Z" fill="#999"/></svg>