<svg width="19" height="19" viewBox="0 0 19 19" fill="none" xmlns="http://www.w3.org/2000/svg">
<path d="M16.6848 4.74268C17.9438 4.74268 18.9645 3.70305 18.9645 2.42059C18.9645 1.13813 17.9438 0.0984955 16.6848 0.0984955C15.4257 0.0984955 14.405 1.13813 14.405 2.42059C14.405 3.70305 15.4257 4.74268 16.6848 4.74268Z" fill="#999999"/>
<path d="M8.5602 2.42058C8.11217 2.42058 7.67337 2.46005 7.24382 2.52971C6.80041 1.12021 5.48865 0.0984955 3.94134 0.0984955C2.02913 0.0984955 0.477188 1.65894 0.477188 3.58163C0.477188 4.64747 0.955242 5.60185 1.70581 6.24042C0.927529 7.4897 0.477188 8.96423 0.477188 10.5479C0.477188 15.0365 4.09607 18.6752 8.5602 18.6752C13.0243 18.6752 16.6432 15.0365 16.6432 10.5479C16.6432 6.05929 13.0243 2.42058 8.5602 2.42058ZM11.7126 12.87C11.313 12.1757 10.5694 11.7089 9.71491 11.7089C8.86042 11.7089 8.11678 12.1757 7.71725 12.87C7.52095 12.5286 7.40548 12.1316 7.40548 11.7089C7.40548 10.4271 8.44011 9.38685 9.71491 9.38685C10.9897 9.38685 12.0243 10.4271 12.0243 11.7089C12.0243 12.1316 11.9089 12.5286 11.7126 12.87Z" fill="#999999"/>
</svg>
